:SAMPLES-PER-SECOND 30
:FULLY-SPECIFIED
:DEGREES
709
root  -47.8029 38.8413 -5.77508 -17.0386 -83.8383 8.72455
RightUpLeg  -2.1288 -6.11 -3.12451
RightLeg  30.3199 2.34204 1.23771
RightFoot  -17.5717 -0.235791 -2.12497
RightToes  5.82063e-011 0 -3.6325e-017
Spine  20.3268 0.162004 12.0992
Spine1  7.7482 5.10937 -11.4425
HEad  -26.1582 5.68143 -0.873343
LeftShoulder1  0.878541 0.99448 -28.9106
LeftArm  -9.85923 -4.96342 -42.2281
LeftForeArm  27.8453 -36.6846 -6.66593
LeftHand  -0.0304157 5.0444 2.57058
RightShoulder  0.266812 -2.6347 25.5864
RightArm  42.0283 30.7632 69.8415
RightForeArm  10.0529 38.5988 8.32476
RightHand  -0.591141 8.4252 -5.32809
LeftUpLeg  -14.608 5.21252 3.68306
LeftLeg  0.452844 -3.19954 -0.327387
LeftFoot  6.99812 1.88927 -11.8667
LeftToes  -1.20963e-009 8.6283e-011 2.04439e-011
710
root  -47.1734 39.3137 -5.86826 -18.4795 -82.3082 10.733
RightUpLeg  -1.58371 -7.16938 -3.71056
RightLeg  26.0098 2.27394 0.979555
RightFoot  -14.7488 -0.148738 -1.63617
RightToes  5.82063e-011 0 -3.6325e-017
Spine  19.652 -0.182868 12.2626
Spine1  7.57191 4.79829 -11.8769
HEad  -25.9969 4.80133 0.395797
LeftShoulder1  0.898626 0.901566 -28.4191
LeftArm  -4.16507 -4.88903 -43.2309
LeftForeArm  24.2476 -29.1611 -4.91978
LeftHand  -0.0456698 3.96209 1.98968
RightShoulder  0.0733107 -3.25726 26.9945
RightArm  39.0145 25.6106 63.6745
RightForeArm  8.51589 35.2499 7.43724
RightHand  -0.462871 8.18168 -4.3324
LeftUpLeg  -14.349 4.2234 2.48308
LeftLeg  4.59401 -4.33224 -0.261503
LeftFoot  5.26878 1.08665 -7.70566
LeftToes  -1.20963e-009 8.6283e-011 2.04439e-011
711
root  -46.6163 39.6407 -5.90918 -20.7177 -80.8974 13.8879
RightUpLeg  -1.88581 -7.98913 -4.53886
RightLeg  23.0364 2.08077 0.739395
RightFoot  -12.6392 -0.0977137 -1.15727
RightToes  5.82063e-011 0 -3.6325e-017
Spine  18.6874 -0.0312754 12.011
Spine1  6.88421 4.57932 -11.2894
HEad  -25.3511 4.31564 0.551435
LeftShoulder1  0.923437 0.875383 -29.0354
LeftArm  1.04291 -5.41034 -43.479
LeftForeArm  20.9778 -20.1907 -4.41303
LeftHand  -0.0307596 5.257 0.52578
RightShoulder  -0.0100273 -3.50674 27.3958
RightArm  37.0046 20.0388 58.5966
RightForeArm  4.29079 28.6151 5.91239
RightHand  -0.441836 7.4371 -4.34451
LeftUpLeg  -13.9196 3.22271 1.18269
LeftLeg  8.81932 -6.05802 -0.809301
LeftFoot  2.96018 1.0214 -8.26986
LeftToes  -1.20963e-009 8.6283e-011 2.04439e-011
712
root  -46.0699 39.895 -5.90868 -23.7238 -80.1152 17.6457
RightUpLeg  -2.2302 -8.47092 -5.4172
RightLeg  20.4437 2.19893 0.623718
RightFoot  -10.7125 -0.0675909 -0.980021
RightToes  5.82063e-011 0 -3.6325e-017
Spine  17.8098 0.268043 11.9784
Spine1  6.61162 4.81462 -11.3476
HEad  -24.8395 3.0775 0.556479
LeftShoulder1  0.936041 0.85478 -29.238
LeftArm  -4.07856 -5.15791 -43.6389
LeftForeArm  27.6536 -11.2617 -7.06456
LeftHand  -0.0442767 6.71438 -0.715075
RightShoulder  -0.0642258 -3.66589 27.5645
RightArm  32.1283 15.6373 54.5913
RightForeArm  3.12494 18.682 5.83112
RightHand  -0.276971 5.97094 -3.1416
LeftUpLeg  -12.7253 2.36768 0.163331
LeftLeg  12.8486 -8.2285 -1.84445
LeftFoot  0.090411 0.795129 -7.93739
LeftToes  -1.20963e-009 8.6283e-011 2.04439e-011
713
root  -45.512 40.0173 -5.89407 -23.2793 -79.4848 18.0572
RightUpLeg  -3.13225 -9.88786 -5.91429
RightLeg  18.7932 3.14601 0.936477
RightFoot  -9.34641 -0.0525929 -0.583588
RightToes  5.82063e-011 0 -3.6325e-017
Spine  17.1051 0.380226 12.6904
Spine1  6.10418 5.06539 -11.8436
HEad  -24.4509 2.12549 0.219001
LeftShoulder1  0.894367 0.971497 -29.2633
LeftArm  -7.20519 -3.6953 -43.5963
LeftForeArm  30.3052 -4.78746 -7.25073
LeftHand  -0.0360877 6.52474 -0.380725
RightShoulder  -0.155687 -3.92956 28.2376
RightArm  16.945 13.3014 49.9923
RightForeArm  13.3072 5.86169 8.92205
RightHand  -0.141811 4.06003 -2.0325
LeftUpLeg  -11.7565 0.636689 -0.172847
LeftLeg  17.1931 -7.9227 -2.41381
LeftFoot  -2.07081 0.601829 -7.25639
LeftToes  -1.20963e-009 8.6283e-011 2.04439e-011
714
root  -44.9751 40.0804 -5.86113 -21.2521 -79.006 16.5748
RightUpLeg  -3.85938 -11.0008 -6.0645
RightLeg  17.492 3.56591 1.29808
RightFoot  -8.06326 -0.0412519 -0.476492
RightToes  5.82063e-011 0 -3.6325e-017
Spine  16.4283 0.501697 13.1315
Spine1  6.10867 5.14331 -11.3896
HEad  -24.6334 2.51371 -1.10561
LeftShoulder1  0.796396 1.28942 -29.9255
LeftArm  -8.11535 -0.575747 -43.2218
LeftForeArm  30.0033 -2.16084 -6.37261
LeftHand  -0.0449948 8.26632 0.266724
RightShoulder  -0.240808 -4.1598 28.9098
RightArm  10.8374 10.6826 45.5457
RightForeArm  17.5649 -3.06489 6.68172
RightHand  -0.111258 1.41585 -2.07641
LeftUpLeg  -9.93898 -0.445738 -0.0981184
LeftLeg  20.6094 -5.27735 -1.86555
LeftFoot  -4.27235 0.440714 -6.74509
LeftToes  -1.20963e-009 8.6283e-011 2.04439e-011
715
root  -44.4368 40.1023 -5.81481 -18.6411 -78.124 14.6791
RightUpLeg  -4.97726 -11.6984 -6.18809
RightLeg  16.7001 3.25063 1.55919
RightFoot  -7.04739 -0.0434265 -0.113374
RightToes  5.82063e-011 0 -3.6325e-017
Spine  15.3031 0.615532 13.6562
Spine1  6.78028 5.35501 -11.4155
HEad  -25.5103 3.14495 -2.3619
LeftShoulder1  0.943079 0.810638 -28.9163
LeftArm  -9.70127 3.54451 -43.9098
LeftForeArm  29.4834 -1.14026 -5.33015
LeftHand  -0.117783 9.36301 -1.93217
RightShoulder  -0.449447 -4.72193 29.9774
RightArm  6.48358 6.45685 40.3815
RightForeArm  21.3446 -5.45667 4.35077
RightHand  -0.0834984 -1.10002 -2.07197
LeftUpLeg  -8.1384 -0.716499 0.0950712
LeftLeg  23.2617 -2.22575 -0.727299
LeftFoot  -6.06407 0.338295 -6.52091
LeftToes  -1.20963e-009 8.6283e-011 2.04439e-011
716
root  -43.8913 40.1156 -5.79259 -14.6444 -76.6936 11.3604
RightUpLeg  -6.00415 -11.7459 -5.94107
RightLeg  15.8321 1.65316 1.42455
RightFoot  -5.81003 -0.0435568 0.082774
RightToes  5.82063e-011 0 -3.6325e-017
Spine  14.8238 0.536961 13.245
Spine1  6.42548 4.88711 -10.1921
HEad  -26.4407 4.8419 -3.56321
LeftShoulder1  0.766977 1.37062 -29.8704
LeftArm  -10.3621 7.26461 -42.5143
LeftForeArm  28.3773 -1.6284 -4.90701
LeftHand  -0.115744 8.72494 -2.23041
RightShoulder  -0.603646 -5.12717 30.3068
RightArm  5.12877 -0.0482629 34.8525
RightForeArm  17.4091 -2.08212 3.24968
RightHand  -0.0796567 -1.02694 -1.77384
LeftUpLeg  -6.19856 -0.0260007 0.836112
LeftLeg  25.1354 -0.154538 0.245607
LeftFoot  -7.22376 0.228662 -5.15291
LeftToes  -1.20963e-009 8.6283e-011 2.04439e-011
717
root  -43.3428 40.15 -5.78545 -11.6547 -74.3764 9.01358
RightUpLeg  -6.7438 -12.0821 -6.12287
RightLeg  14.8191 -0.437759 1.32241
RightFoot  -4.59997 -0.0462187 0.258117
RightToes  5.82063e-011 0 -3.6325e-017
Spine  14.5694 0.0101235 12.1236
Spine1  5.5844 3.84694 -9.07377
HEad  -27.3131 6.62299 -4.44983
LeftShoulder1  0.615559 1.81698 -30.3784
LeftArm  -9.58887 10.905 -40.5517
LeftForeArm  25.9122 -2.76369 -5.35828
LeftHand  -0.112695 8.92256 -2.00268
RightShoulder  -0.863005 -5.79977 30.9928
RightArm  6.06437 -5.77459 29.2925
RightForeArm  7.00805 1.85184 3.37191
RightHand  -0.212954 2.01937 -3.58657
LeftUpLeg  -4.03713 0.760066 1.61627
LeftLeg  25.5806 1.06203 0.8792
LeftFoot  -8.05392 0.16285 -4.01212
LeftToes  -1.20963e-009 8.6283e-011 2.04439e-011
718
root  -42.8249 40.1922 -5.78489 -10.2043 -71.5597 7.8938
RightUpLeg  -6.99465 -12.6096 -6.70798
RightLeg  13.9275 -2.77208 1.21268
RightFoot  -3.40897 -0.0396545 0.239078
RightToes  5.82063e-011 0 -3.6325e-017
Spine  13.9606 -0.457389 9.8592
Spine1  5.46573 2.52522 -6.76448
HEad  -28.0245 8.36017 -5.92785
LeftShoulder1  0.539216 2.02568 -30.3968
LeftArm  -9.48526 14.2178 -39.7349
LeftForeArm  24.5012 -4.02515 -5.43779
LeftHand  -0.0963961 9.21813 -1.29908
RightShoulder  -0.812859 -5.75332 29.4889
RightArm  6.99929 -11.506 26.2754
RightForeArm  -1.01566 5.24638 3.47529
RightHand  -0.215116 3.34251 -3.08722
LeftUpLeg  -1.07381 2.67785 2.63377
LeftLeg  24.1526 0.686762 0.675136
LeftFoot  -8.65451 0.14056 -3.78876
LeftToes  -1.20963e-009 8.6283e-011 2.04439e-011
